<svg width="30" height="26" fill="none" xmlns="http://www.w3.org/2000/svg"><path d="M6.667 21.125C5.747 21.125 5 20.397 5 19.5V1.625C5 .728 5.747 0 6.667 0H10c.92 0 1.667.728 1.667 1.625V19.5c0 .897-.747 1.625-1.667 1.625H6.667zM27.5 1.625c1.38 0 2.5 1.091 2.5 2.438v19.5C30 24.909 28.88 26 27.5 26h-25C1.12 26 0 24.909 0 23.562v-19.5c0-1.346 1.12-2.437 2.5-2.437h.833V19.5c0 1.792 1.495 3.25 3.334 3.25H10c1.838 0 3.333-1.458 3.333-3.25V1.625H27.5zM20 21.938v-1.625a.823.823 0 00-.833-.813H17.5a.823.823 0 00-.833.813v1.625c0 .448.373.812.833.812h1.667c.46 0 .833-.364.833-.813zm0-6.5v-1.626a.823.823 0 00-.833-.812H17.5a.823.823 0 00-.833.813v1.624c0 .449.373.813.833.813h1.667c.46 0 .833-.364.833-.813zm6.667 6.5v-1.625a.823.823 0 00-.834-.813h-1.666a.823.823 0 00-.834.813v1.625c0 .448.374.812.834.812h1.666c.46 0 .834-.364.834-.813zm0-6.5v-1.626a.823.823 0 00-.834-.812h-1.666a.823.823 0 00-.834.813v1.624c0 .449.374.813.834.813h1.666c.46 0 .834-.364.834-.813zm0-5.688V4.875h-10V9.75h10z" fill="#fff"/></svg>