<svg width="18" height="16" fill="none" xmlns="http://www.w3.org/2000/svg"><path d="M9 0a3.938 3.938 0 013.938 3.938c0 1.757-2.574 4.962-3.56 6.125a.493.493 0 01-.756 0c-.986-1.163-3.56-4.368-3.56-6.126A3.938 3.938 0 019 0zm0 5.25a1.312 1.312 0 100-2.625A1.312 1.312 0 009 5.25zM.629 6.748l3.707-1.482c.162.465.388.951.664 1.45v7.283L.686 15.963A.5.5 0 010 15.5V7.676c0-.373.282-.789.629-.928zM9 11.24c.44 0 .855-.193 1.141-.529A32.985 32.985 0 0012 8.312V16l-6-2V8.311a33.016 33.016 0 001.859 2.398c.286.336.701.53 1.141.53zm8.314-6.203a.5.5 0 01.686.465v7.822c0 .374-.282.79-.629.928L13 16V7l4.314-1.964z" fill="#fff"/></svg>