<svg width="16" height="14" fill="none" xmlns="http://www.w3.org/2000/svg"><path d="M3.556 11.375a.882.882 0 01-.89-.875V.875c0-.483.399-.875.89-.875h1.777c.491 0 .89.392.89.875V10.5a.882.882 0 01-.89.875H3.556zm11.11-10.5c.737 0 1.334.588 1.334 1.313v10.5c0 .724-.597 1.312-1.333 1.312H1.333A1.323 1.323 0 010 12.687v-10.5C0 1.464.597.875 1.333.875h.445V10.5c0 .965.797 1.75 1.778 1.75h1.777c.98 0 1.778-.785 1.778-1.75V.875h7.556zm-4 10.938v-.876a.44.44 0 00-.444-.437h-.889a.441.441 0 00-.444.438v.874c0 .242.199.438.444.438h.89a.441.441 0 00.444-.438zm0-3.5v-.876A.44.44 0 0010.222 7h-.889a.441.441 0 00-.444.438v.875a.44.44 0 00.444.437h.89a.441.441 0 00.444-.438zm3.556 3.5v-.876a.44.44 0 00-.444-.437h-.89a.441.441 0 00-.444.438v.874c0 .242.2.438.445.438h.889a.441.441 0 00.444-.438zm0-3.5v-.876A.44.44 0 0013.778 7h-.89a.441.441 0 00-.444.438v.875c0 .241.2.437.445.437h.889a.441.441 0 00.444-.438zm0-3.063V2.625H8.89V5.25h5.333z" fill="#fff"/></svg>